ToyLandingModel_states
version=1
nRows=4
nColumns=195
inDegrees=yes

# SIMM Motion File Header:
name ToyLandingModel_states
datacolumns 195
datarows 4
otherdata 1
range 0.31855131 0.31897537
endheader
time	/jointset/ground_platform/platform_rx/value	/jointset/ground_platform/platform_rx/speed	/jointset/ground_platform/platform_ry/value	/jointset/ground_platform/platform_ry/speed	/jointset/ground_platform/platform_rz/value	/jointset/ground_platform/platform_rz/speed	/jointset/ground_platform/platform_ty/value	/jointset/ground_platform/platform_ty/speed	/jointset/ground_pelvis/pelvis_tilt/value	/jointset/ground_pelvis/pelvis_tilt/speed	/jointset/ground_pelvis/pelvis_list/value	/jointset/ground_pelvis/pelvis_list/speed	/jointset/ground_pelvis/pelvis_rotation/value	/jointset/ground_pelvis/pelvis_rotation/speed	/jointset/ground_pelvis/pelvis_tx/value	/jointset/ground_pelvis/pelvis_tx/speed	/jointset/ground_pelvis/pelvis_ty/value	/jointset/ground_pelvis/pelvis_ty/speed	/jointset/ground_pelvis/pelvis_tz/value	/jointset/ground_pelvis/pelvis_tz/speed	/jointset/hip_r/hip_flexion_r/value	/jointset/hip_r/hip_flexion_r/speed	/jointset/hip_r/hip_adduction_r/value	/jointset/hip_r/hip_adduction_r/speed	/jointset/hip_r/hip_rotation_r/value	/jointset/hip_r/hip_rotation_r/speed	/jointset/knee_r/knee_angle_r/value	/jointset/knee_r/knee_angle_r/speed	/jointset/ankle_r/ankle_angle_r/value	/jointset/ankle_r/ankle_angle_r/speed	/jointset/subtalar_r/subtalar_angle_r/value	/jointset/subtalar_r/subtalar_angle_r/speed	/jointset/mtp_r/mtp_angle_r/value	/jointset/mtp_r/mtp_angle_r/speed	/jointset/hip_l/hip_flexion_l/value	/jointset/hip_l/hip_flexion_l/speed	/jointset/hip_l/hip_adduction_l/value	/jointset/hip_l/hip_adduction_l/speed	/jointset/hip_l/hip_rotation_l/value	/jointset/hip_l/hip_rotation_l/speed	/jointset/knee_l/knee_angle_l/value	/jointset/knee_l/knee_angle_l/speed	/jointset/ankle_l/ankle_angle_l/value	/jointset/ankle_l/ankle_angle_l/speed	/jointset/subtalar_l/subtalar_angle_l/value	/jointset/subtalar_l/subtalar_angle_l/speed	/jointset/mtp_l/mtp_angle_l/value	/jointset/mtp_l/mtp_angle_l/speed	/jointset/back/lumbar_extension/value	/jointset/back/lumbar_extension/speed	/jointset/back/lumbar_bending/value	/jointset/back/lumbar_bending/speed	/jointset/back/lumbar_rotation/value	/jointset/back/lumbar_rotation/speed	/forceset/glut_med1_r/activation	/forceset/glut_med1_r/fiber_length	/forceset/glut_med2_r/activation	/forceset/glut_med2_r/fiber_length	/forceset/glut_med3_r/activation	/forceset/glut_med3_r/fiber_length	/forceset/bifemlh_r/activation	/forceset/bifemlh_r/fiber_length	/forceset/bifemsh_r/activation	/forceset/bifemsh_r/fiber_length	/forceset/sar_r/activation	/forceset/sar_r/fiber_length	/forceset/add_mag2_r/activation	/forceset/add_mag2_r/fiber_length	/forceset/tfl_r/activation	/forceset/tfl_r/fiber_length	/forceset/pect_r/activation	/forceset/pect_r/fiber_length	/forceset/grac_r/activation	/forceset/grac_r/fiber_length	/forceset/glut_max1_r/activation	/forceset/glut_max1_r/fiber_length	/forceset/glut_max2_r/activation	/forceset/glut_max2_r/fiber_length	/forceset/glut_max3_r/activation	/forceset/glut_max3_r/fiber_length	/forceset/iliacus_r/activation	/forceset/iliacus_r/fiber_length	/forceset/psoas_r/activation	/forceset/psoas_r/fiber_length	/forceset/quad_fem_r/activation	/forceset/quad_fem_r/fiber_length	/forceset/gem_r/activation	/forceset/gem_r/fiber_length	/forceset/peri_r/activation	/forceset/peri_r/fiber_length	/forceset/rect_fem_r/activation	/forceset/rect_fem_r/fiber_length	/forceset/vas_int_r/activation	/forceset/vas_int_r/fiber_length	/forceset/med_gas_r/activation	/forceset/med_gas_r/fiber_length	/forceset/lat_gas_r/activation	/forceset/lat_gas_r/fiber_length	/forceset/soleus_r/activation	/forceset/soleus_r/fiber_length	/forceset/tib_post_r/activation	/forceset/tib_post_r/fiber_length	/forceset/flex_dig_r/activation	/forceset/flex_dig_r/fiber_length	/forceset/flex_hal_r/activation	/forceset/flex_hal_r/fiber_length	/forceset/tib_ant_r/activation	/forceset/tib_ant_r/fiber_length	/forceset/per_brev_r/activation	/forceset/per_brev_r/fiber_length	/forceset/per_long_r/activation	/forceset/per_long_r/fiber_length	/forceset/per_tert_r/activation	/forceset/per_tert_r/fiber_length	/forceset/ext_dig_r/activation	/forceset/ext_dig_r/fiber_length	/forceset/ext_hal_r/activation	/forceset/ext_hal_r/fiber_length	/forceset/glut_med1_l/activation	/forceset/glut_med1_l/fiber_length	/forceset/glut_med2_l/activation	/forceset/glut_med2_l/fiber_length	/forceset/glut_med3_l/activation	/forceset/glut_med3_l/fiber_length	/forceset/bifemlh_l/activation	/forceset/bifemlh_l/fiber_length	/forceset/bifemsh_l/activation	/forceset/bifemsh_l/fiber_length	/forceset/sar_l/activation	/forceset/sar_l/fiber_length	/forceset/add_mag2_l/activation	/forceset/add_mag2_l/fiber_length	/forceset/tfl_l/activation	/forceset/tfl_l/fiber_length	/forceset/pect_l/activation	/forceset/pect_l/fiber_length	/forceset/grac_l/activation	/forceset/grac_l/fiber_length	/forceset/glut_max1_l/activation	/forceset/glut_max1_l/fiber_length	/forceset/glut_max2_l/activation	/forceset/glut_max2_l/fiber_length	/forceset/glut_max3_l/activation	/forceset/glut_max3_l/fiber_length	/forceset/iliacus_l/activation	/forceset/iliacus_l/fiber_length	/forceset/psoas_l/activation	/forceset/psoas_l/fiber_length	/forceset/quad_fem_l/activation	/forceset/quad_fem_l/fiber_length	/forceset/gem_l/activation	/forceset/gem_l/fiber_length	/forceset/peri_l/activation	/forceset/peri_l/fiber_length	/forceset/rect_fem_l/activation	/forceset/rect_fem_l/fiber_length	/forceset/vas_int_l/activation	/forceset/vas_int_l/fiber_length	/forceset/med_gas_l/activation	/forceset/med_gas_l/fiber_length	/forceset/lat_gas_l/activation	/forceset/lat_gas_l/fiber_length	/forceset/soleus_l/activation	/forceset/soleus_l/fiber_length	/forceset/tib_post_l/activation	/forceset/tib_post_l/fiber_length	/forceset/flex_dig_l/activation	/forceset/flex_dig_l/fiber_length	/forceset/flex_hal_l/activation	/forceset/flex_hal_l/fiber_length	/forceset/tib_ant_l/activation	/forceset/tib_ant_l/fiber_length	/forceset/per_brev_l/activation	/forceset/per_brev_l/fiber_length	/forceset/per_long_l/activation	/forceset/per_long_l/fiber_length	/forceset/per_tert_l/activation	/forceset/per_tert_l/fiber_length	/forceset/ext_dig_l/activation	/forceset/ext_dig_l/fiber_length	/forceset/ext_hal_l/activation	/forceset/ext_hal_l/fiber_length	/forceset/ercspn_r/activation	/forceset/ercspn_r/fiber_length	/forceset/ercspn_l/activation	/forceset/ercspn_l/fiber_length	/forceset/intobl_r/activation	/forceset/intobl_r/fiber_length	/forceset/intobl_l/activation	/forceset/intobl_l/fiber_length	/forceset/extobl_r/activation	/forceset/extobl_r/fiber_length	/forceset/extobl_l/activation	/forceset/extobl_l/fiber_length
      0.31855131	     20.00000000	     -0.00000000	     -0.00000000	     -0.00000000	      0.00000000	      0.00000000	      0.25000000	     -0.00000000	     -8.40622555	     72.72794667	     -2.27293172	   -230.63743123	     -0.71028085	   -179.56584054	      0.04850122	     -0.35618556	      1.19405630	     -2.05081739	     -0.00235982	      0.03258608	     20.26903526	    576.91096673	     -0.26304437	    179.86523140	     -1.61787516	    -23.64800098	    -33.97961810	  -1198.09725211	     24.31208014	    239.81226746	      5.46454468	    467.37923051	     -0.00000000	     -0.00000000	    -19.99999998	      0.00000000	     10.00000028	      0.00000000	      4.99999985	      0.00000000	   -119.99999986	     -0.00000000	     11.49999977	      0.00000000	     -0.03000064	      0.00000000	     -0.00000000	     -0.00000000	     -4.76978027	   -155.26281770	      2.77124330	    284.51269772	      1.93458138	    218.83718421	      0.30062896	      0.05155138	      0.25629845	      0.09296956	      0.33479040	      0.07338394	     -0.01555913	      0.10573604	     -0.01422624	      0.17320769	     -0.00983597	      0.49100981	      0.07762227	      0.08811820	      0.02340316	      0.11069819	      0.00497387	      0.07006473	     -0.01518951	      0.33234244	      0.22678868	      0.09713282	      0.23732829	      0.10799202	      0.26439597	      0.12443713	      0.01050885	      0.10448875	      0.00998806	      0.09826992	     -0.01537274	      0.05042465	     -0.00915387	      0.02692186	      0.38784781	      0.02492171	      0.31576005	      0.11662070	      0.49417996	      0.09872975	      0.14255127	      0.10526144	      0.18426476	      0.07532230	      0.28032359	      0.09908897	      0.23884797	      0.03648248	      0.22656875	      0.03192902	      0.26881460	      0.04198731	      0.20008857	      0.06791456	      0.81771643	      0.05277625	      0.84407218	      0.05018271	      0.60000521	      0.07529672	      0.60000337	      0.08384070	      0.20009456	      0.09456340	     -0.01557138	      0.05111649	     -0.01557138	      0.08716779	     -0.01557138	      0.06673534	     -0.01557138	      0.02428048	     -0.01557138	      0.13461995	     -0.01557138	      0.50111739	     -0.01557138	      0.06411506	     -0.01557138	      0.14730645	     -0.01557138	      0.08038127	     -0.01557138	      0.26731708	     -0.01557138	      0.07301880	     -0.01557138	      0.07209866	     -0.01557138	      0.06347041	     -0.01557138	      0.13085274	     -0.01557138	      0.12404021	     -0.01557138	      0.04824096	     -0.01557138	      0.02725649	     -0.01557138	      0.02565897	     -0.01557138	      0.20077404	     -0.01557138	      0.15340515	     -0.01557138	      0.07451129	     -0.01557138	      0.04609342	     -0.01557138	      0.09452687	     -0.01557138	      0.03918171	     -0.01557138	      0.03764536	     -0.01557138	      0.04687957	     -0.01557138	      0.07932341	     -0.01557138	      0.05533506	     -0.01557138	      0.05671543	     -0.01557138	      0.08210518	     -0.01557138	      0.09777191	     -0.01557138	      0.10605240	      0.00071887	      0.13301263	      0.16625585	      0.13718744	     -0.01557138	      0.10207383	      0.12996844	      0.10595976	     -0.01557138	      0.13690063	      0.13999413	      0.14307708
      0.31869401	     20.00000000	     -0.00000000	     -0.00000000	     -0.00000000	      0.00000000	      0.00000000	      0.25000000	     -0.00000000	     -8.39580836	     73.27664750	     -2.30579023	   -229.89838602	     -0.73581161	   -178.26612600	      0.04845054	     -0.35415183	      1.19376384	     -2.04828116	     -0.00235532	      0.03056442	     20.35099615	    571.83304277	     -0.23744680	    178.90245574	     -1.62130083	    -24.36843828	    -34.14994728	  -1189.20328068	     24.34578177	    232.60998584	      5.53119426	    466.76111491	     -0.00000000	     -0.00000000	    -19.99999998	      0.00000000	     10.00000028	      0.00000000	      4.99999985	      0.00000000	   -119.99999986	     -0.00000000	     11.49999977	      0.00000000	     -0.03000064	      0.00000000	     -0.00000000	     -0.00000000	     -4.79198306	   -155.92470221	      2.81176622	    283.44495583	      1.96571757	    217.55849434	      0.30151648	      0.05158409	      0.25758633	      0.09301979	      0.33692007	      0.07343541	     -0.01557751	      0.10571568	     -0.01424461	      0.17313776	     -0.00985434	      0.49089102	      0.07821977	      0.08812403	      0.02335853	      0.11069061	      0.00495549	      0.07002431	     -0.01520788	      0.33223353	      0.22799163	      0.09720544	      0.23861066	      0.10807254	      0.26586493	      0.12452458	      0.01048954	      0.10444827	      0.00996969	      0.09822950	     -0.01537815	      0.05042479	     -0.00889370	      0.02692155	      0.39080267	      0.02491856	      0.31708752	      0.11668162	      0.49680872	      0.09886175	      0.14218887	      0.10524560	      0.18375535	      0.07530767	      0.27980854	      0.09911209	      0.23872922	      0.03648210	      0.22648927	      0.03192863	      0.26859327	      0.04198775	      0.20008832	      0.06785667	      0.81930102	      0.05279892	      0.84551721	      0.05018648	      0.60000519	      0.07528081	      0.60000336	      0.08380966	      0.20009429	      0.09452092	     -0.01558975	      0.05111649	     -0.01558975	      0.08716779	     -0.01558975	      0.06673534	     -0.01558975	      0.02428048	     -0.01558975	      0.13461995	     -0.01558975	      0.50111739	     -0.01558975	      0.06411506	     -0.01558975	      0.14730645	     -0.01558975	      0.08038127	     -0.01558975	      0.26731708	     -0.01558975	      0.07301880	     -0.01558975	      0.07209866	     -0.01558975	      0.06347041	     -0.01558975	      0.13085274	     -0.01558975	      0.12404021	     -0.01558975	      0.04824096	     -0.01558975	      0.02725649	     -0.01558975	      0.02565897	     -0.01558975	      0.20077404	     -0.01558975	      0.15340515	     -0.01558975	      0.07451129	     -0.01558975	      0.04609342	     -0.01558975	      0.09452687	     -0.01558975	      0.03918171	     -0.01558975	      0.03764539	     -0.01558975	      0.04687960	     -0.01558975	      0.07932341	     -0.01558975	      0.05533506	     -0.01558975	      0.05671543	     -0.01558975	      0.08210518	     -0.01558975	      0.09777191	     -0.01558975	      0.10605240	      0.00070050	      0.13299276	      0.16743605	      0.13721950	     -0.01558975	      0.10203341	      0.13064051	      0.10598637	     -0.01558975	      0.13680994	      0.14054922	      0.14311072
      0.31883469	     20.00000000	     -0.00000000	     -0.00000000	     -0.00000000	      0.00000000	      0.00000000	      0.25000000	     -0.00000000	     -8.38546172	     73.81387228	     -2.33808088	   -229.15594506	     -0.76079974	   -176.97389570	      0.04840086	     -0.35212075	      1.19347586	     -2.04579436	     -0.00235116	      0.02858116	     20.43108966	    566.81440591	     -0.21234598	    177.93721245	     -1.62477999	    -25.09624769	    -34.31663080	  -1180.45374053	     24.37802978	    225.91414377	      5.59681366	    466.10890934	     -0.00000000	     -0.00000000	    -19.99999998	      0.00000000	     10.00000028	      0.00000000	      4.99999985	      0.00000000	   -119.99999986	     -0.00000000	     11.49999977	      0.00000000	     -0.03000064	      0.00000000	     -0.00000000	     -0.00000000	     -4.81396411	   -156.56287407	      2.85156683	    282.37226405	      1.99623464	    216.28156287	      0.30234155	      0.05161624	      0.25879098	      0.09306901	      0.33892744	      0.07348586	     -0.01559562	      0.10569562	     -0.01426272	      0.17306883	     -0.00987246	      0.49077470	      0.07877495	      0.08813046	      0.02331462	      0.11068301	      0.00493738	      0.06998447	     -0.01522600	      0.33212676	      0.22911090	      0.09727662	      0.23980394	      0.10815143	      0.26723261	      0.12461028	      0.01047053	      0.10440837	      0.00995158	      0.09818966	     -0.01538413	      0.05042495	     -0.00865611	      0.02692128	      0.39360220	      0.02491565	      0.31832815	      0.11674465	      0.49929633	      0.09899115	      0.14183274	      0.10522979	      0.18325500	      0.07529306	      0.27928825	      0.09913434	      0.23861252	      0.03648170	      0.22641116	      0.03192821	      0.26837584	      0.04198816	      0.20008807	      0.06779990	      0.82083902	      0.05282165	      0.84691321	      0.05019027	      0.60000516	      0.07526561	      0.60000334	      0.08377933	      0.20009403	      0.09447924	     -0.01560786	      0.05111649	     -0.01560786	      0.08716779	     -0.01560786	      0.06673534	     -0.01560786	      0.02428048	     -0.01560786	      0.13461995	     -0.01560786	      0.50111739	     -0.01560786	      0.06411506	     -0.01560786	      0.14730645	     -0.01560786	      0.08038127	     -0.01560786	      0.26731708	     -0.01560786	      0.07301880	     -0.01560786	      0.07209866	     -0.01560786	      0.06347041	     -0.01560786	      0.13085274	     -0.01560786	      0.12404021	     -0.01560786	      0.04824096	     -0.01560786	      0.02725649	     -0.01560786	      0.02565897	     -0.01560786	      0.20077404	     -0.01560786	      0.15340515	     -0.01560786	      0.07451129	     -0.01560786	      0.04609343	     -0.01560786	      0.09452687	     -0.01560786	      0.03918171	     -0.01560786	      0.03764541	     -0.01560786	      0.04687963	     -0.01560786	      0.07932341	     -0.01560786	      0.05533506	     -0.01560786	      0.05671543	     -0.01560786	      0.08210518	     -0.01560786	      0.09777191	     -0.01560786	      0.10605240	      0.00068239	      0.13297336	      0.16856693	      0.13728511	     -0.01560786	      0.10199357	      0.13126333	      0.10601261	     -0.01560786	      0.13672065	      0.14104906	      0.14314383
      0.31897537	     20.00000000	     -0.00000000	     -0.00000000	     -0.00000000	      0.00000000	      0.00000000	      0.25000000	     -0.00000000	     -8.37503892	     74.36115627	     -2.37026752	   -228.42278675	     -0.78560608	   -175.68329407	      0.04835146	     -0.35009850	      1.19318823	     -2.04328662	     -0.00234728	      0.02658827	     20.51047561	    561.77253546	     -0.18738055	    176.98087736	     -1.62836259	    -25.83866708	    -34.48208472	  -1171.72271892	     24.40936365	    219.61356183	      5.66233793	    465.40786687	     -0.00000000	     -0.00000000	    -19.99999998	      0.00000000	     10.00000028	      0.00000000	      4.99999985	      0.00000000	   -119.99999986	     -0.00000000	     11.49999977	      0.00000000	     -0.03000064	      0.00000000	     -0.00000000	     -0.00000000	     -4.83603551	   -157.21265427	      2.89121719	    281.31338589	      2.02657226	    215.01013913	      0.30311836	      0.05164828	      0.25993243	      0.09311794	      0.34084506	      0.07353603	     -0.01561373	      0.10567557	     -0.01428084	      0.17299989	     -0.00989057	      0.49065915	      0.07929701	      0.08813762	      0.02327079	      0.11067530	      0.00491927	      0.06994462	     -0.01524411	      0.33202059	      0.23016534	      0.09734738	      0.24092817	      0.10822981	      0.26852191	      0.12469543	      0.01045155	      0.10436846	      0.00993346	      0.09814981	     -0.01539085	      0.05042514	     -0.00843924	      0.02692104	      0.39629104	      0.02491294	      0.31950312	      0.11680976	      0.50168301	      0.09911981	      0.14147778	      0.10521377	      0.18275650	      0.07527829	      0.27875648	      0.09915608	      0.23849620	      0.03648126	      0.22633328	      0.03192777	      0.26815917	      0.04198857	      0.20008782	      0.06774343	      0.82235323	      0.05284474	      0.84828146	      0.05019414	      0.60000514	      0.07525089	      0.60000332	      0.08374930	      0.20009376	      0.09443778	     -0.01562597	      0.05111649	     -0.01562597	      0.08716779	     -0.01562597	      0.06673534	     -0.01562597	      0.02428048	     -0.01562597	      0.13461995	     -0.01562597	      0.50111739	     -0.01562597	      0.06411506	     -0.01562597	      0.14730645	     -0.01562597	      0.08038127	     -0.01562597	      0.26731708	     -0.01562597	      0.07301880	     -0.01562597	      0.07209866	     -0.01562597	      0.06347041	     -0.01562597	      0.13085274	     -0.01562597	      0.12404021	     -0.01562597	      0.04824096	     -0.01562597	      0.02725649	     -0.01562597	      0.02565897	     -0.01562597	      0.20077404	     -0.01562597	      0.15340515	     -0.01562597	      0.07451129	     -0.01562597	      0.04609343	     -0.01562597	      0.09452687	     -0.01562597	      0.03918171	     -0.01562597	      0.03764544	     -0.01562597	      0.04687966	     -0.01562597	      0.07932341	     -0.01562597	      0.05533506	     -0.01562597	      0.05671543	     -0.01562597	      0.08210518	     -0.01562597	      0.09777191	     -0.01562597	      0.10605240	      0.00066428	      0.13295415	      0.16966610	      0.13731669	     -0.01562597	      0.10195372	      0.13184757	      0.10603885	     -0.01562597	      0.13663148	      0.14150280	      0.14317685
